<svg width="21" height="19" viewBox="0 0 21 19" fill="none" xmlns="http://www.w3.org/2000/svg">
<path d="M20.9995 12.7526V15.7526C20.9995 15.9515 20.9205 16.1423 20.7799 16.283C20.6392 16.4236 20.4485 16.5026 20.2495 16.5026C20.0506 16.5026 19.8599 16.4236 19.7192 16.283C19.5786 16.1423 19.4995 15.9515 19.4995 15.7526V14.5629L19.2924 14.7711C19.0017 15.087 15.5095 18.7526 9.74955 18.7526C3.8583 18.7526 0.338923 14.9173 0.191736 14.7542C0.0587131 14.6056 -0.00984499 14.4103 0.00114347 14.2112C0.0121319 14.0121 0.101767 13.8255 0.250329 13.6925C0.398892 13.5594 0.594213 13.4909 0.793324 13.5019C0.992435 13.5129 1.17903 13.6025 1.31205 13.7511C1.33736 13.7839 4.54642 17.2526 9.74955 17.2526C14.9527 17.2526 18.1617 13.7839 18.1936 13.7501C18.2016 13.7403 18.21 13.7309 18.2189 13.722L18.4392 13.5026H17.2495C17.0506 13.5026 16.8599 13.4236 16.7192 13.283C16.5786 13.1423 16.4995 12.9515 16.4995 12.7526C16.4995 12.5537 16.5786 12.3629 16.7192 12.2223C16.8599 12.0816 17.0506 12.0026 17.2495 12.0026H20.2495C20.4485 12.0026 20.6392 12.0816 20.7799 12.2223C20.9205 12.3629 20.9995 12.5537 20.9995 12.7526ZM12.7495 5.86481V4.87762C12.75 4.11927 12.4951 3.38286 12.0259 2.78711C11.5567 2.19136 10.9005 1.77101 10.1631 1.59382C9.42577 1.41662 8.65023 1.49293 7.96155 1.81042C7.27286 2.12792 6.71117 2.6681 6.36705 3.34387C6.27654 3.52103 6.11937 3.65498 5.9301 3.71625C5.74084 3.77752 5.53499 3.7611 5.35783 3.67059C5.18067 3.58008 5.04673 3.42291 4.98545 3.23365C4.92418 3.04438 4.94061 2.83853 5.03111 2.66137C5.52842 1.68559 6.33981 0.90569 7.33451 0.447381C8.3292 -0.0109284 9.44924 -0.120945 10.5141 0.135062C11.579 0.39107 12.5266 0.998188 13.2043 1.85856C13.8819 2.71893 14.2501 3.78242 14.2495 4.87762V13.5026C14.2495 13.7015 14.1705 13.8923 14.0299 14.033C13.8892 14.1736 13.6985 14.2526 13.4995 14.2526C13.3006 14.2526 13.1099 14.1736 12.9692 14.033C12.8286 13.8923 12.7495 13.7015 12.7495 13.5026V12.8904C12.0605 13.5534 11.1918 13.9992 10.2513 14.1722C9.31091 14.3452 8.34038 14.2378 7.46053 13.8634C6.58068 13.489 5.83036 12.8641 5.30295 12.0665C4.77555 11.2689 4.49434 10.3338 4.49434 9.37762C4.49434 8.42142 4.77555 7.48634 5.30295 6.68874C5.83036 5.89114 6.58068 5.26626 7.46053 4.89186C8.34038 4.51746 9.31091 4.41007 10.2513 4.58307C11.1918 4.75607 12.0605 5.2018 12.7495 5.86481ZM12.7495 9.37762C12.7495 8.71011 12.5516 8.05759 12.1808 7.50257C11.8099 6.94756 11.2828 6.51497 10.6661 6.25953C10.0494 6.00408 9.3708 5.93725 8.71612 6.06747C8.06143 6.1977 7.46006 6.51913 6.98806 6.99114C6.51606 7.46314 6.19462 8.06451 6.0644 8.71919C5.93417 9.37388 6.00101 10.0525 6.25645 10.6692C6.5119 11.2859 6.94448 11.813 7.4995 12.1838C8.05451 12.5547 8.70704 12.7526 9.37455 12.7526C9.81776 12.7526 10.2566 12.6653 10.6661 12.4957C11.0756 12.3261 11.4476 12.0775 11.761 11.7641C12.0744 11.4507 12.323 11.0787 12.4926 10.6692C12.6623 10.2597 12.7495 9.82083 12.7495 9.37762Z" fill="#121212"/>
</svg>
