<svg width="24" height="23" viewBox="0 0 24 23" fill="none" xmlns="http://www.w3.org/2000/svg">
<path d="M12.8571 12.381V18.5417C12.8571 18.7751 12.7668 18.9989 12.6061 19.164C12.4453 19.329 12.2273 19.4218 12 19.4218C11.7727 19.4218 11.5547 19.329 11.3939 19.164C11.2332 18.9989 11.1429 18.7751 11.1429 18.5417V12.381C11.1429 12.1476 11.2332 11.9237 11.3939 11.7587C11.5547 11.5936 11.7727 11.5009 12 11.5009C12.2273 11.5009 12.4453 11.5936 12.6061 11.7587C12.7668 11.9237 12.8571 12.1476 12.8571 12.381ZM16.8043 12.293L16.2043 18.4537C16.1924 18.569 16.2029 18.6856 16.2351 18.7968C16.2672 18.908 16.3205 19.0115 16.3918 19.1015C16.4631 19.1914 16.551 19.2661 16.6505 19.321C16.7499 19.376 16.859 19.4102 16.9714 19.4218C17.0003 19.4234 17.0293 19.4234 17.0582 19.4218C17.2705 19.4215 17.4751 19.3403 17.6325 19.194C17.7899 19.0477 17.8887 18.8466 17.91 18.6297L18.51 12.469C18.5327 12.2368 18.4646 12.0048 18.3208 11.824C18.1769 11.6433 17.969 11.5286 17.7428 11.5053C17.5166 11.482 17.2907 11.5518 17.1147 11.6996C16.9387 11.8473 16.827 12.0607 16.8043 12.293ZM7.19574 12.293C7.173 12.0607 7.06135 11.8473 6.88533 11.6996C6.70932 11.5518 6.48336 11.482 6.25717 11.5053C6.03098 11.5286 5.82308 11.6433 5.67922 11.824C5.53535 12.0048 5.4673 12.2368 5.49003 12.469L6.09003 18.6297C6.11135 18.8475 6.21098 19.0494 6.36948 19.1958C6.52797 19.3423 6.73394 19.4229 6.94717 19.4218C6.97607 19.4234 7.00505 19.4234 7.03395 19.4218C7.14595 19.4102 7.25464 19.3761 7.3538 19.3214C7.45297 19.2667 7.54067 19.1925 7.61191 19.103C7.68314 19.0136 7.73652 18.9105 7.76898 18.7999C7.80144 18.6892 7.81235 18.5731 7.80109 18.4581L7.19574 12.293ZM23.9924 8.97724L22.3778 21.4152C22.3215 21.8373 22.1185 22.2243 21.8062 22.5049C21.494 22.7855 21.0935 22.9408 20.6785 22.9421H3.32147C2.90652 22.9408 2.50602 22.7855 2.19376 22.5049C1.88151 22.2243 1.67852 21.8373 1.62219 21.4152L0.00755744 8.97724C-0.00862852 8.85291 0.00125371 8.72647 0.0365417 8.60639C0.0718297 8.48631 0.131708 8.37536 0.212164 8.28097C0.29262 8.18659 0.391795 8.11096 0.503042 8.05914C0.614289 8.00732 0.735038 7.98052 0.857196 7.98053H5.6111L11.3571 1.24011C11.4376 1.14646 11.5365 1.07146 11.6473 1.02008C11.7582 0.968708 11.8784 0.942139 12 0.942139C12.1216 0.942139 12.2418 0.968708 12.3527 1.02008C12.4635 1.07146 12.5624 1.14646 12.6429 1.24011L18.3889 7.98053H23.1428C23.265 7.98052 23.3857 8.00732 23.497 8.05914C23.6082 8.11096 23.7074 8.18659 23.7878 8.28097C23.8683 8.37536 23.9282 8.48631 23.9635 8.60639C23.9987 8.72647 24.0086 8.85291 23.9924 8.97724ZM7.88895 7.98053H16.1111L12 3.15651L7.88895 7.98053ZM22.1635 9.74072H1.83648L3.32147 21.1819H20.6785L22.1635 9.74072Z" fill="black"/>
</svg>
