<svg width="105" height="64" viewBox="0 0 105 64" fill="none" xmlns="http://www.w3.org/2000/svg">
<path d="M10.2419 51.0066L6.76938 62.2619H3.7833L5.24257 57.5193H4.43186L2.98611 62.2619H0L3.47253 51.0066H6.45862L5.24257 55.0331H6.13435L7.3369 51.0066H10.2419Z" fill="#0E6360"/>
<path d="M16.6194 53.0205L13.7144 59.6953C13.228 60.7357 12.9037 61.4653 12.7416 61.8707C12.4984 62.2761 12.2551 62.6004 12.0119 62.8301C11.7687 63.0733 11.3634 63.2354 11.0391 63.3975C10.6337 63.5597 10.0662 63.5597 9.26905 63.5597H7.58008L8.0665 62.1139C8.47186 62.1139 8.79614 62.1139 8.95828 62.0328C9.12042 61.9518 9.20149 61.8707 9.20149 61.7086C9.20149 61.6275 9.28257 61.3033 9.36364 60.7358L10.1743 53.007H12.7551L11.7822 59.2765L14.1198 53.007H16.6194V53.0205Z" fill="#0E6360"/>
<path d="M20.011 55.5068C20.1732 55.1015 20.1732 54.7771 20.1732 54.6961C20.1732 54.615 20.0921 54.5339 19.93 54.5339C19.7678 54.5339 19.6057 54.615 19.5246 54.6961C19.4435 54.8582 19.2814 55.1015 19.2003 55.5068L18.2275 58.6415C18.0653 59.0468 18.0653 59.2901 18.0653 59.4522C18.0653 59.6144 18.1464 59.6144 18.3086 59.6144C18.4707 59.6144 18.6328 59.5333 18.7139 59.3712C18.795 59.209 18.9571 58.8847 19.1193 58.3307L20.011 55.5202V55.5068ZM23.5511 53.0206L21.3757 60.1818C21.0515 61.1412 20.8893 61.7897 20.7272 62.0329C20.565 62.2761 20.3218 62.6005 19.9975 62.9112C19.5922 63.2355 19.1868 63.4787 18.6193 63.6408C18.0518 63.803 17.4843 63.884 16.6872 63.884C15.7954 63.884 15.0792 63.7219 14.6739 63.3976C14.1875 63.0733 14.1064 62.5194 14.3496 61.6276H17.0925C16.9304 62.0329 17.0925 62.2761 17.3357 62.2761C17.5789 62.2761 17.7411 62.1951 17.8221 62.114C17.9032 61.9519 18.0654 61.7087 18.1464 61.3033L18.3896 60.5872C18.0653 60.8304 17.7411 60.9926 17.4978 61.0736C17.1736 61.1547 16.9304 61.2358 16.6061 61.2358C16.1197 61.2358 15.7143 61.1547 15.4711 60.9115C15.2279 60.6683 15.0657 60.425 15.0657 60.1008C15.0657 59.7765 15.1468 59.29 15.3089 58.655L16.3629 55.277C16.6061 54.3988 17.0114 53.7502 17.4168 53.3449C17.8221 52.9395 18.3896 52.7774 19.0247 52.7774C19.349 52.7774 19.6732 52.8585 19.9165 53.0206C20.1597 53.1827 20.3218 53.3449 20.484 53.6691L20.8893 52.9395H23.5511V53.0206Z" fill="#0E6360"/>
<path d="M27.8341 51.0066L27.4287 52.4524H24.5237L25.0101 51.0066H27.8341ZM27.2666 53.0199L24.4426 62.2754H21.5376L24.3616 53.0199H27.2666Z" fill="#0E6360"/>
<path d="M30.4962 56.3168L30.7394 55.6682C30.9016 55.1818 30.9827 54.8575 30.9827 54.6953C30.9827 54.5332 30.9016 54.4521 30.7394 54.4521C30.5773 54.4521 30.4152 54.5332 30.3341 54.6143C30.253 54.6953 30.0909 55.0196 29.9288 55.5736L29.6855 56.3032H30.4962V56.3168ZM32.9148 57.8436H29.2802L28.6316 59.8568C28.4695 60.2622 28.4695 60.5864 28.4695 60.6675C28.4695 60.7486 28.6316 60.8297 28.7938 60.8297C29.037 60.8297 29.1991 60.7486 29.2802 60.5864C29.4423 60.4243 29.5234 60.1001 29.6855 59.6136L30.0909 58.4111H32.7527L32.5095 59.0597C32.3473 59.6272 32.1852 60.1 32.0231 60.3432C31.8609 60.6675 31.6177 60.9918 31.2124 61.3026C30.807 61.6269 30.4017 61.9511 29.9152 62.1133C29.4288 62.2754 28.9424 62.3565 28.3073 62.3565C27.7398 62.3565 27.1724 62.2754 26.7805 62.1133C26.3752 61.9511 26.0509 61.708 25.8887 61.3837C25.7266 61.0594 25.6455 60.7351 25.6455 60.4109C25.6455 60.0866 25.8077 59.5326 25.9698 58.803L26.7805 56.0736C27.0237 55.2629 27.348 54.6278 27.6723 54.1414C27.9966 53.655 28.483 53.3307 29.0505 53.101C29.618 52.8577 30.2665 52.6956 30.9016 52.6956C31.7123 52.6956 32.2798 52.8577 32.7527 53.182C33.1581 53.5063 33.4013 53.9117 33.4823 54.3846C33.5634 54.871 33.4013 55.5871 33.1581 56.4789L32.9148 57.8436Z" fill="#0E6360"/>
<path d="M37.9142 53.0191L37.5899 53.8974C37.9142 53.5731 38.2385 53.3298 38.5628 53.0866C38.8871 52.9245 39.2924 52.8434 39.6978 52.8434C40.1842 52.8434 40.5085 52.9245 40.7517 53.1677C40.9949 53.4109 41.076 53.6541 41.076 54.046C41.076 54.3703 40.9138 54.9242 40.6706 55.816L38.7384 62.2476H35.9145L37.8466 55.816C38.0088 55.1675 38.171 54.7756 38.171 54.6945C38.171 54.5324 38.0899 54.4513 37.8466 54.4513C37.6845 54.4513 37.5224 54.5324 37.3602 54.6945C37.1981 54.8567 37.117 55.262 36.8738 55.9782L34.9416 62.2476H32.1177L34.9416 52.992H37.9277L37.9142 53.0191Z" fill="#0E6360"/>
<path d="M44.778 56.3168L45.0212 55.6682C45.1833 55.1818 45.2644 54.8575 45.2644 54.6953C45.2644 54.5332 45.1833 54.4521 45.0212 54.4521C44.859 54.4521 44.6969 54.5332 44.6158 54.6143C44.5348 54.6953 44.3726 55.0197 44.2105 55.5736L43.9672 56.3032H44.778V56.3168ZM47.1966 57.8436H43.5619L42.9133 59.8568C42.7512 60.2622 42.7512 60.5864 42.7512 60.6675C42.7512 60.7486 42.9133 60.8297 43.0755 60.8297C43.3187 60.8297 43.4808 60.7486 43.5619 60.5864C43.7241 60.4243 43.8051 60.1001 43.9672 59.6136L44.3726 58.4111H47.0344L46.7912 59.1408C46.6291 59.7083 46.4669 60.1811 46.3048 60.4243C46.1427 60.7486 45.8994 61.0729 45.4941 61.3972C45.0887 61.7215 44.6834 62.0457 44.197 62.2079C43.7105 62.37 43.2241 62.4511 42.5891 62.4511C42.0216 62.4511 41.4541 62.37 41.0622 62.2079C40.6569 62.0457 40.3326 61.8026 40.1704 61.4918C40.0083 61.1675 39.9272 60.8432 39.9272 60.5189C39.9272 60.1946 40.0894 59.6406 40.2515 58.911L41.0622 56.1817C41.3054 55.371 41.6297 54.7359 41.954 54.2494C42.2783 53.763 42.7647 53.4388 43.3322 53.2091C43.8997 52.9659 44.5482 52.8037 45.1833 52.8037C45.994 52.8037 46.5615 52.9659 47.0344 53.2901C47.4398 53.6144 47.683 54.0198 47.7641 54.4927C47.8451 54.9791 47.683 55.6952 47.4398 56.587L47.1966 57.8707V57.8436Z" fill="#0E6360"/>
<path d="M55.182 52.9392L54.2902 55.8307H54.5334C54.7766 55.8307 55.0198 55.7496 55.182 55.6686C55.3441 55.5064 55.4252 55.2632 55.5873 54.8578L55.9116 53.8985C55.9926 53.4932 56.0737 53.2499 55.9926 53.1688C55.8305 53.0067 55.5873 52.9256 55.182 52.9256V52.9392ZM52.8444 51.007H55.8305C56.6412 51.007 57.2087 51.0881 57.6005 51.1691C58.0059 51.3313 58.2491 51.4934 58.4113 51.7366C58.5734 51.9798 58.6545 52.3041 58.5734 52.6149C58.5734 52.9392 58.4113 53.4932 58.1681 54.1417L57.8438 55.101C57.6006 55.8306 57.3573 56.3036 57.1141 56.7089C56.8709 57.0332 56.5466 57.2765 56.0602 57.4386C55.5738 57.6007 55.0874 57.6818 54.4523 57.6818H53.6416L52.2634 62.2623H49.3584L52.8309 50.9935L52.8444 51.007Z" fill="#0E6360"/>
<path d="M62.1945 53.0187L61.7081 54.2213C62.3566 53.343 63.1673 52.8566 63.8835 52.8566L62.9106 56.0724C62.4242 56.0724 62.0188 56.1534 61.6945 56.3156C61.3702 56.4777 61.2081 56.6398 61.046 56.883C60.8839 57.1263 60.7217 57.6938 60.3974 58.572L59.2624 62.1932H56.4385L59.2624 52.9376H62.1674V53.0187H62.1945Z" fill="#0E6360"/>
<path d="M67.2883 55.5878C67.4504 55.1014 67.5315 54.777 67.4504 54.7095C67.4504 54.5473 67.3693 54.5473 67.2072 54.5473C67.0451 54.5473 66.8829 54.6284 66.8018 54.7095C66.7208 54.7906 66.5586 55.1149 66.4776 55.5878L65.1804 59.7764C65.0183 60.1817 65.0183 60.5061 65.0183 60.6547C65.0183 60.8033 65.0994 60.8168 65.2615 60.8168C65.4236 60.8168 65.5858 60.7358 65.6668 60.6547C65.7479 60.4925 65.829 60.2493 65.9911 59.8439L67.2883 55.5743V55.5878ZM69.869 56.3174L69.1394 58.5738C68.8962 59.3845 68.6529 60.0196 68.4097 60.4249C68.1665 60.8303 67.9233 61.1546 67.518 61.5464C67.1126 61.9518 66.7072 62.1139 66.2208 62.276C65.7344 62.4382 65.248 62.5193 64.694 62.5193C64.0454 62.5193 63.559 62.4382 63.1672 62.276C62.7618 62.1139 62.5186 61.9518 62.3565 61.6275C62.1943 61.3843 62.1133 60.979 62.1133 60.6547C62.1133 60.3304 62.2754 59.6954 62.5186 58.8847L63.2483 56.5471C63.4915 55.6688 63.8158 55.0202 64.14 54.5338C64.4643 54.0474 64.9507 53.6555 65.5047 53.4123C66.0722 53.1691 66.7208 53.007 67.518 53.007C68.1665 53.007 68.6529 53.088 69.0448 53.3313C69.4501 53.4934 69.6934 53.7366 69.8555 54.0474C70.0176 54.3717 70.0987 54.6959 70.0987 55.0202C70.1798 55.1013 70.0176 55.5877 69.8555 56.3039L69.869 56.3174Z" fill="#0E6360"/>
<path d="M74.3826 55.3439C74.4636 55.0196 74.5447 54.7764 74.5447 54.6953C74.5447 54.6142 74.4636 54.5332 74.2204 54.5332C74.0583 54.5332 73.8961 54.6142 73.8151 54.6953C73.734 54.7764 73.6529 55.0196 73.4908 55.425L72.1126 59.9244C72.0315 60.3297 71.9505 60.573 71.9505 60.654C71.9505 60.7351 72.0315 60.8162 72.1937 60.8162C72.3558 60.8162 72.5179 60.7351 72.599 60.654C72.6801 60.573 72.8422 60.1676 73.0044 59.6947L74.3826 55.3439ZM78.5847 51.0066L75.1122 62.2754H72.2883L72.5315 61.6268C72.2072 61.8701 71.8018 62.1132 71.4776 62.2754C71.1533 62.4375 70.829 62.5187 70.5047 62.5187C70.0994 62.5187 69.694 62.4375 69.4508 62.1943C69.2076 61.9511 69.0454 61.7079 69.0454 61.3836C69.0454 61.0594 69.1265 60.5729 69.3697 59.9379L70.7479 55.6006C70.9911 54.8709 71.1533 54.3981 71.3154 54.0738C71.4776 53.7495 71.8018 53.5063 72.2072 53.2631C72.6125 53.0199 73.0179 52.9388 73.5043 52.9388C73.8286 52.9388 74.1529 53.0199 74.3961 53.1009C74.6393 53.2631 74.8825 53.4252 75.0446 53.6684L75.8553 51.0066H78.5982H78.5847Z" fill="#0E6360"/>
<path d="M85.1107 53.0198L82.2867 62.2753H79.3817L79.706 61.4646C79.3817 61.7889 79.0574 62.0322 78.7331 62.1808C78.4089 62.3429 78.0035 62.424 77.6792 62.424C77.2739 62.424 76.9496 62.3429 76.7064 62.1808C76.4632 62.0187 76.301 61.8565 76.301 61.6133C76.22 61.37 76.22 61.1269 76.301 60.8026C76.3821 60.5594 76.4632 59.9919 76.7064 59.1947L78.6385 52.9252H81.4625L79.5303 59.1947C79.2871 59.9243 79.2061 60.3162 79.2061 60.4783C79.2061 60.6405 79.2871 60.7215 79.5303 60.7215C79.7735 60.7215 79.8546 60.6405 79.9357 60.4783C80.0167 60.3162 80.1789 59.9108 80.4221 59.1136L82.3543 52.9252H85.0972V53.0063L85.1107 53.0198Z" fill="#0E6360"/>
<path d="M91.0014 56.5602H88.3396L88.6639 55.5198C88.7449 55.1144 88.826 54.8712 88.826 54.7902C88.826 54.628 88.7449 54.628 88.5828 54.628C88.4207 54.628 88.2585 54.7091 88.1774 54.7902C88.0963 54.8712 88.0153 55.1955 87.8531 55.6009L86.475 59.9517C86.3939 60.276 86.3128 60.5191 86.3939 60.6678C86.3939 60.8299 86.556 60.911 86.7182 60.911C86.8803 60.911 87.0424 60.8299 87.2046 60.6678C87.2856 60.5056 87.4478 60.1814 87.6099 59.7085L87.9342 58.587H90.4339C90.1907 59.3166 90.0285 59.8706 89.8664 60.276C89.7042 60.6813 89.461 61.0056 89.0557 61.3974C88.6503 61.8028 88.245 62.046 87.7586 62.2757C87.2721 62.4378 86.7046 62.6 86.0696 62.6C85.2589 62.6 84.6914 62.4378 84.2995 62.1946C83.8942 61.9514 83.732 61.5461 83.651 61.0732C83.5699 60.5868 83.7321 59.8706 83.9753 58.9788L84.786 56.317C85.0292 55.5063 85.2724 54.9523 85.5967 54.547C85.9209 54.1416 86.3263 53.8173 86.9614 53.5065C87.6099 53.1823 88.2585 53.0201 88.9746 53.0201C89.6907 53.0201 90.2717 53.1823 90.7446 53.5065C91.15 53.8308 91.3932 54.2362 91.3932 54.7091C91.3932 54.9523 91.3122 55.682 90.9879 56.5602H91.0014Z" fill="#0E6360"/>
<path d="M96.3251 51.8039L95.8387 53.2497H96.5683L96.0819 54.6955H95.3522L93.8254 59.6813C93.6633 60.3299 93.5822 60.6542 93.5822 60.7217C93.6633 60.8028 93.9065 60.8028 94.3118 60.8028L93.8254 62.3297H92.7715C92.1229 62.3297 91.6365 62.3297 91.3933 62.2486C91.1501 62.1675 90.9069 62.0865 90.7447 61.8432C90.5826 61.6811 90.5015 61.4378 90.5826 61.1946C90.5826 60.9514 90.7447 60.3839 91.069 59.4246L92.5283 54.763H91.9608L92.4472 53.3173H93.0958L93.5822 51.8716H96.3251V51.7905V51.8039Z" fill="#0E6360"/>
<path d="M102.135 55.9924H99.6357L99.7978 55.506C99.96 55.1006 99.96 54.7763 99.96 54.6952C99.96 54.6142 99.8789 54.5331 99.6357 54.5331C99.4736 54.5331 99.3114 54.6142 99.2303 54.6952C99.1492 54.7763 99.0682 54.9384 98.9871 55.1816C98.906 55.5059 98.825 55.6681 98.825 55.8303C98.825 55.9924 98.906 56.0735 99.0682 56.2356C99.2303 56.3977 99.5546 56.6409 100.041 56.9652C100.771 57.3706 101.176 57.7759 101.338 58.0867C101.5 58.411 101.419 58.965 101.257 59.6135C101.014 60.3297 100.771 60.8972 100.446 61.3025C100.122 61.7079 99.7167 61.9511 99.1493 62.1808C98.6628 62.424 98.0143 62.5051 97.3792 62.5051C96.6496 62.5051 96.0821 62.424 95.6092 62.1808C95.2038 61.9376 94.8795 61.6133 94.7985 61.3025C94.7174 60.8972 94.7985 60.3297 95.0417 59.6135L95.2038 59.1271H97.7035L97.5413 59.6946C97.3792 60.181 97.2981 60.5053 97.2981 60.6674C97.2981 60.8296 97.3792 60.9107 97.6225 60.9107C97.7846 60.9107 97.9467 60.8296 98.1089 60.7486C98.1899 60.6675 98.3521 60.4242 98.4331 60.0999C98.5953 59.6946 98.5953 59.3839 98.5142 59.2893C98.4331 59.2082 98.0278 58.8839 97.136 58.3164C96.4064 57.83 96.0821 57.4382 96.001 57.0328C95.92 56.6275 96.001 56.2221 96.1632 55.6681C96.4064 54.952 96.6496 54.3845 96.9739 54.0602C97.2982 53.7359 97.7035 53.4116 98.1899 53.2495C98.7574 53.0873 99.3249 52.9252 99.8789 52.9252C100.527 52.9252 101.014 53.0063 101.406 53.1684C101.811 53.3305 102.054 53.4927 102.216 53.817C102.379 54.0602 102.46 54.3034 102.379 54.5466C102.379 54.7898 102.298 55.1141 102.135 55.5871V55.9924Z" fill="#0E6360"/>
<path d="M38.8868 36.9283H35.4143L35.7386 35.8878C35.9007 35.4014 35.9818 35.0771 35.9007 34.915C35.8196 34.7528 35.7386 34.6717 35.4953 34.6717C35.2521 34.6717 35.09 34.7528 34.9278 34.915C34.7657 35.0771 34.6036 35.4014 34.5225 35.7257C34.3604 36.2121 34.3604 36.5364 34.3604 36.7796C34.4414 37.0228 34.6847 37.3471 35.1711 37.6579C36.5493 38.6172 37.3464 39.4279 37.5897 40.0765C37.8329 40.725 37.7518 41.6844 37.2654 43.1301C36.9411 44.1705 36.6168 44.9001 36.2115 45.3866C35.8061 45.873 35.2386 46.2648 34.4414 46.5891C33.6307 46.9134 32.8335 47.0755 31.8607 47.0755C30.8878 47.0755 30.0907 46.9134 29.4421 46.5081C28.8746 46.1027 28.5503 45.6298 28.4692 45.0623C28.4692 44.4948 28.5503 43.6166 28.8746 42.5627L29.1989 41.6033H32.6714L32.266 43.5355C32.1039 44.103 32.0228 44.4138 32.1039 44.5759C32.185 44.738 32.266 44.8191 32.5903 44.8191C32.9146 44.8191 33.0767 44.738 33.2389 44.4948C33.401 44.3327 33.5632 44.0084 33.7253 43.6165C33.9685 42.8058 34.0496 42.2518 33.8874 41.9276C33.7253 41.6843 33.2389 41.2115 32.5228 40.644C31.7931 39.9954 31.3067 39.6036 31.0635 39.2793C30.8203 39.0361 30.7392 38.6307 30.6581 38.1578C30.5771 37.6714 30.7392 37.0363 30.9013 36.3067C31.2256 35.1852 31.631 34.3745 32.0363 33.8881C32.4417 33.4017 33.0903 33.0098 33.7253 32.6856C34.3739 32.3613 35.2522 32.2802 36.1439 32.2802C37.1168 32.2802 37.9139 32.4423 38.4814 32.7666C39.0489 33.0909 39.3732 33.4962 39.4543 33.9692C39.5354 34.4556 39.3732 35.2528 39.0489 36.3878L38.8868 36.9552V36.9283Z" fill="#0E6360"/>
<path d="M45.183 32.5757L44.6156 34.4268H40.8998L41.4673 32.5757H45.183ZM44.3724 35.1565L40.7377 46.8983H37.022L40.6566 35.1565H44.3724Z" fill="#0E6360"/>
<path d="M48.7234 39.3469L48.9666 38.4686C49.1288 37.82 49.2098 37.4958 49.2098 37.2661C49.2098 37.0364 49.1288 37.0228 48.8856 37.0228C48.6424 37.0228 48.4802 37.104 48.3181 37.2661C48.237 37.4283 48.0749 37.8336 47.8317 38.4686L47.5884 39.3469H48.7234ZM51.7095 41.2656H47.0345L46.2237 43.8328C46.0616 44.4003 45.9805 44.711 46.0616 44.8867C46.0616 45.0488 46.2237 45.1299 46.467 45.1299C46.7102 45.1299 46.9534 45.0488 47.1155 44.8056C47.2777 44.5624 47.4398 44.2382 47.6019 43.6031L48.0884 42.0763H51.4798L51.2366 42.9545C50.9934 43.6842 50.8312 44.2381 50.588 44.6435C50.3448 45.0488 50.0205 45.4542 49.5341 45.9271C49.0477 46.3325 48.5613 46.7379 47.9262 46.8865C47.3587 47.1297 46.6291 47.2108 45.913 47.2108C45.1968 47.2108 44.5348 47.1297 43.9808 46.8865C43.4944 46.6433 43.089 46.4 42.9269 46.0082C42.7647 45.6028 42.6026 45.1975 42.6837 44.7246C42.7647 44.2381 42.8458 43.6031 43.089 42.7113L44.1429 39.2523C44.4672 38.2119 44.8726 37.4012 45.2779 36.8337C45.7643 36.2662 46.3318 35.7933 47.0479 35.469C47.7776 35.1448 48.5883 34.9826 49.3855 34.9826C50.3583 34.9826 51.1556 35.1448 51.723 35.5501C52.2905 35.9555 52.5337 36.4284 52.6148 37.0769C52.6959 37.7255 52.5337 38.6037 52.2094 39.7387L51.723 41.2656H51.7095Z" fill="#0E6360"/>
<path d="M58.1681 35.1573L57.5195 36.684C58.4113 35.5626 59.2896 34.9951 60.3435 34.914L59.0464 39.0216C58.3978 39.0216 57.9114 39.1027 57.5195 39.2648C57.1953 39.427 56.871 39.6702 56.7089 39.9944C56.5467 40.3187 56.3035 41.0349 55.8981 42.1699L54.4389 46.8314H50.8853L54.5199 35.0897H58.1546V35.1707L58.1681 35.1573Z" fill="#0E6360"/>
<path d="M64.5456 35.1573L63.897 36.684C64.7888 35.5626 65.667 34.9951 66.7209 34.914L65.4238 39.0216C64.7752 39.0216 64.2888 39.1027 63.897 39.2648C63.5727 39.427 63.2484 39.6702 63.0863 39.9944C62.9241 40.3187 62.6809 41.0349 62.2756 42.1699L60.8163 46.8314H57.2627L60.8974 35.0897H64.532V35.1707L64.5456 35.1573Z" fill="#0E6360"/>
<path d="M69.7073 41.3466C68.9777 41.752 68.5723 42.1574 68.4102 42.3871C68.248 42.6303 68.0859 43.1167 67.9238 43.5896C67.7616 44.2382 67.6806 44.5624 67.6806 44.7921C67.6806 44.9542 67.8427 45.0354 68.0859 45.0354C68.3291 45.0354 68.4913 44.9542 68.5723 44.7921C68.6534 44.63 68.8155 44.3057 68.9777 43.6707L69.7073 41.3331V41.3466ZM69.0588 39.7387H65.6673L65.9105 38.928C66.1537 38.0498 66.478 37.3202 66.8834 36.8337C67.2077 36.3473 67.7752 35.8744 68.5723 35.5501C69.302 35.1448 70.1938 34.9826 71.2342 34.9826C72.4502 34.9826 73.3285 35.2258 73.8149 35.6312C74.3013 36.0365 74.5445 36.5905 74.4635 37.2391C74.3013 37.8066 73.977 39.0902 73.4095 41.0224L71.5584 46.9H68.0859L68.4102 45.8461C68.0859 46.2514 67.6805 46.5757 67.2752 46.8189C66.8698 47.0621 66.3834 47.1432 65.9105 47.1432C65.262 47.1432 64.7755 46.981 64.3702 46.5757C63.9648 46.1703 63.9648 45.4542 64.2891 44.2382L64.6134 43.2654C64.8566 42.3871 65.1809 41.8196 65.5862 41.4953C65.9916 41.171 66.8023 40.7657 68.0048 40.3738C69.302 39.8874 70.0181 39.5631 70.1802 39.4009C70.3424 39.2388 70.4234 38.9146 70.5856 38.4416C70.7477 37.7931 70.8288 37.4012 70.8288 37.2391C70.8288 37.0769 70.6667 36.9959 70.4235 36.9959C70.1802 36.9959 70.0181 37.0769 69.8559 37.2391C69.7749 37.4012 69.6127 37.8066 69.3695 38.4416L69.0452 39.7252L69.0588 39.7387Z" fill="#0E6360"/>
<path d="M72.6122 15.2005L69.4639 18.2541L54.5334 -0.000213623L34.2118 19.3081L29.7664 14.5655L9.26904 32.2659L10.8905 34.1035L29.6042 17.8623L36.0628 24.9425L37.914 23.3346L35.8196 21.0781L54.2902 3.53986L67.7615 19.9431L64.3025 23.2535L65.9914 25.0236L72.6122 18.5785L91.407 36.522L93.096 34.8331L72.6122 15.2005Z" fill="#0E6360"/>
<path d="M103.662 52.9386V53.1007H103.338V53.952H103.135V53.1007H102.811V52.9386H103.662ZM104.757 53.952L104.716 53.3574C104.716 53.2764 104.716 53.1817 104.716 53.0737C104.689 53.1682 104.662 53.2764 104.635 53.371L104.446 53.9384H104.243L104.054 53.3574C104.041 53.2764 104 53.1547 103.987 53.0737C103.987 53.1682 103.987 53.2628 103.987 53.3574L103.946 53.952H103.757L103.838 52.9386H104.135L104.311 53.4385C104.338 53.5196 104.351 53.5871 104.378 53.6952C104.405 53.6006 104.432 53.5196 104.446 53.452L104.622 52.9521H104.919L105 53.9655H104.797L104.757 53.952Z" fill="#0E6360"/>
</svg>
