<svg width="20" height="20" viewBox="0 0 20 20" fill="none" xmlns="http://www.w3.org/2000/svg">
<path d="M19.5308 18.4115L14.8368 13.7184C16.1973 12.085 16.8757 9.98994 16.7309 7.86908C16.5861 5.74821 15.6293 3.76482 14.0593 2.33149C12.4894 0.898159 10.4274 0.125252 8.30213 0.173552C6.17687 0.221852 4.15205 1.08764 2.64888 2.59081C1.14571 4.09398 0.279927 6.1188 0.231627 8.24405C0.183327 10.3693 0.956234 12.4314 2.38956 14.0013C3.82289 15.5712 5.80629 16.5281 7.92715 16.6729C10.048 16.8177 12.1431 16.1392 13.7765 14.7787L18.4696 19.4728C18.5393 19.5424 18.622 19.5977 18.713 19.6354C18.8041 19.6731 18.9017 19.6926 19.0002 19.6926C19.0988 19.6926 19.1963 19.6731 19.2874 19.6354C19.3784 19.5977 19.4612 19.5424 19.5308 19.4728C19.6005 19.4031 19.6558 19.3204 19.6935 19.2293C19.7312 19.1383 19.7506 19.0407 19.7506 18.9421C19.7506 18.8436 19.7312 18.746 19.6935 18.655C19.6558 18.5639 19.6005 18.4812 19.5308 18.4115ZM1.75021 8.44214C1.75021 7.10712 2.14609 5.80207 2.88779 4.69204C3.62949 3.58201 4.6837 2.71684 5.9171 2.20595C7.1505 1.69506 8.5077 1.56139 9.81707 1.82184C11.1264 2.08229 12.3292 2.72516 13.2732 3.66917C14.2172 4.61317 14.8601 5.81591 15.1205 7.12528C15.381 8.43465 15.2473 9.79185 14.7364 11.0253C14.2255 12.2587 13.3603 13.3129 12.2503 14.0546C11.1403 14.7963 9.83524 15.1921 8.50021 15.1921C6.71061 15.1902 4.99488 14.4784 3.72944 13.2129C2.464 11.9475 1.7522 10.2317 1.75021 8.44214Z" fill="black"/>
</svg>
