<svg width="232" height="142" viewBox="0 0 232 142" fill="none" xmlns="http://www.w3.org/2000/svg">
<path d="M22.6298 112.701L14.9571 137.57H8.35929L11.5836 127.091H9.7923L6.59788 137.57H0L7.67265 112.701H14.2705L11.5836 121.598H13.554L16.2111 112.701H22.6298Z" fill="white"/>
<path d="M36.7208 117.15L30.302 131.898C29.2273 134.197 28.5108 135.809 28.1525 136.705C27.6151 137.6 27.0777 138.317 26.5403 138.825C26.003 139.362 25.1073 139.72 24.3908 140.078C23.4952 140.437 22.2413 140.437 20.4799 140.437H16.748L17.8228 137.242C18.7185 137.242 19.435 137.242 19.7932 137.063C20.1515 136.884 20.3306 136.705 20.3306 136.347C20.3306 136.167 20.5097 135.451 20.6889 134.197L22.4801 117.12H28.1824L26.0328 130.973L31.1976 117.12H36.7208V117.15Z" fill="white"/>
<path d="M44.2146 122.644C44.5729 121.748 44.5729 121.032 44.5729 120.852C44.5729 120.673 44.3938 120.494 44.0355 120.494C43.6772 120.494 43.319 120.673 43.1399 120.852C42.9607 121.211 42.6025 121.748 42.4234 122.644L40.2738 129.57C39.9156 130.466 39.9156 131.003 39.9156 131.361C39.9156 131.72 40.0947 131.72 40.453 131.72C40.8112 131.72 41.1695 131.54 41.3486 131.182C41.5277 130.824 41.886 130.107 42.2443 128.883L44.2146 122.674V122.644ZM52.0365 117.151L47.23 132.973C46.5134 135.093 46.1552 136.526 45.7969 137.063C45.4387 137.601 44.9013 138.317 44.1848 139.004C43.2891 139.721 42.3935 140.258 41.1396 140.616C39.8857 140.974 38.6318 141.154 36.8704 141.154C34.9 141.154 33.3177 140.795 32.4221 140.079C31.3473 139.362 31.1682 138.138 31.7055 136.168H37.7661C37.4078 137.064 37.766 137.601 38.3034 137.601C38.8408 137.601 39.1991 137.422 39.3782 137.243C39.5573 136.884 39.9156 136.347 40.0947 135.451L40.6321 133.869C39.9156 134.406 39.199 134.765 38.6617 134.944C37.9452 135.123 37.4078 135.302 36.6913 135.302C35.6165 135.302 34.7209 135.123 34.1835 134.586C33.6461 134.048 33.2879 133.511 33.2879 132.794C33.2879 132.078 33.467 131.003 33.8252 129.6L36.1539 122.136C36.6913 120.196 37.5869 118.763 38.4825 117.867C39.3782 116.971 40.6321 116.613 42.0352 116.613C42.7518 116.613 43.4683 116.792 44.0057 117.151C44.543 117.509 44.9013 117.867 45.2595 118.583L46.1552 116.971H52.0365V117.151Z" fill="white"/>
<path d="M61.5001 112.701L60.6045 115.896H54.1858L55.2605 112.701H61.5001ZM60.2462 117.149L54.0066 137.6H47.5879L53.8275 117.149H60.2462Z" fill="white"/>
<path d="M67.3819 124.435L67.9192 123.002C68.2775 121.927 68.4567 121.211 68.4567 120.852C68.4567 120.494 68.2775 120.315 67.9192 120.315C67.561 120.315 67.2027 120.494 67.0236 120.673C66.8445 120.852 66.4863 121.569 66.128 122.793L65.5906 124.405H67.3819V124.435ZM72.7258 127.809H64.6949L63.2619 132.257C62.9037 133.152 62.9037 133.869 62.9037 134.048C62.9037 134.227 63.2619 134.406 63.6202 134.406C64.1576 134.406 64.5158 134.227 64.6949 133.869C65.0532 133.511 65.2323 132.794 65.5906 131.719L66.4862 129.062H72.3676L71.8302 130.496C71.4719 131.749 71.1137 132.794 70.7554 133.332C70.3972 134.048 69.8598 134.765 68.9642 135.451C68.0685 136.168 67.1729 136.884 66.0981 137.243C65.0234 137.601 63.9486 137.78 62.5454 137.78C61.2915 137.78 60.0377 137.601 59.1719 137.243C58.2762 136.884 57.5597 136.347 57.2015 135.63C56.8432 134.914 56.6641 134.197 56.6641 133.481C56.6641 132.764 57.0223 131.54 57.3806 129.928L59.1719 123.898C59.7093 122.106 60.4257 120.703 61.1422 119.628C61.8588 118.554 62.9335 117.837 64.1874 117.33C65.4413 116.792 66.8743 116.434 68.2775 116.434C70.0688 116.434 71.3227 116.792 72.3676 117.509C73.2632 118.225 73.8006 119.121 73.9797 120.166C74.1589 121.241 73.8006 122.823 73.2632 124.793L72.7258 127.809Z" fill="white"/>
<path d="M83.7725 117.148L83.0559 119.089C83.7724 118.372 84.4889 117.835 85.2054 117.297C85.922 116.939 86.8176 116.76 87.7132 116.76C88.788 116.76 89.5045 116.939 90.0419 117.476C90.5793 118.014 90.7584 118.551 90.7584 119.417C90.7584 120.133 90.4001 121.358 89.8628 123.328L85.5936 137.539H79.354L83.6232 123.328C83.9814 121.895 84.3397 121.029 84.3397 120.85C84.3397 120.492 84.1605 120.313 83.6232 120.313C83.2649 120.313 82.9067 120.492 82.5484 120.85C82.1902 121.208 82.011 122.104 81.4736 123.686L77.2044 137.539H70.9648L77.2044 117.088H83.8023L83.7725 117.148Z" fill="white"/>
<path d="M98.9385 124.433L99.4758 123C99.8341 121.926 100.013 121.209 100.013 120.851C100.013 120.493 99.8341 120.313 99.4758 120.313C99.1176 120.313 98.7594 120.493 98.5802 120.672C98.4011 120.851 98.0429 121.567 97.6846 122.791L97.1472 124.403H98.9385V124.433ZM104.282 127.807H96.2516L94.8185 132.255C94.4603 133.151 94.4603 133.867 94.4603 134.046C94.4603 134.226 94.8185 134.405 95.1768 134.405C95.7142 134.405 96.0725 134.226 96.2516 133.867C96.6098 133.509 96.7889 132.793 97.1472 131.718L98.0429 129.061H103.924L103.387 130.673C103.029 131.927 102.67 132.972 102.312 133.509C101.954 134.226 101.416 134.942 100.521 135.659C99.6251 136.375 98.7295 137.092 97.6548 137.45C96.58 137.808 95.5052 137.987 94.1021 137.987C92.8482 137.987 91.5943 137.808 90.7285 137.45C89.8328 137.092 89.1163 136.554 88.7581 135.868C88.3998 135.151 88.2207 134.435 88.2207 133.718C88.2207 133.002 88.5789 131.778 88.9372 130.165L90.7285 124.135C91.2659 122.344 91.9824 120.94 92.6989 119.866C93.4154 118.791 94.4901 118.074 95.744 117.567C96.9979 117.029 98.4309 116.671 99.8341 116.671C101.625 116.671 102.879 117.029 103.924 117.746C104.82 118.462 105.357 119.358 105.536 120.403C105.715 121.478 105.357 123.06 104.82 125.031L104.282 127.867V127.807Z" fill="white"/>
<path d="M121.926 116.972L119.955 123.361H120.493C121.03 123.361 121.568 123.182 121.926 123.003C122.284 122.644 122.463 122.107 122.822 121.211L123.538 119.092C123.717 118.196 123.896 117.659 123.717 117.48C123.359 117.121 122.822 116.942 121.926 116.942V116.972ZM116.761 112.703H123.359C125.15 112.703 126.404 112.882 127.27 113.061C128.165 113.419 128.703 113.778 129.061 114.315C129.419 114.852 129.598 115.569 129.419 116.256C129.419 116.972 129.061 118.196 128.524 119.629L127.807 121.749C127.27 123.361 126.732 124.406 126.195 125.301C125.658 126.018 124.941 126.555 123.866 126.914C122.792 127.272 121.717 127.451 120.314 127.451H118.522L115.477 137.572H109.059L116.731 112.673L116.761 112.703Z" fill="white"/>
<path d="M137.421 117.146L136.346 119.803C137.779 117.863 139.571 116.788 141.153 116.788L139.003 123.893C137.929 123.893 137.033 124.072 136.317 124.431C135.6 124.789 135.242 125.147 134.884 125.685C134.525 126.222 134.167 127.476 133.45 129.416L130.943 137.417H124.703L130.943 116.967H137.361V117.146H137.421Z" fill="white"/>
<path d="M148.674 122.823C149.033 121.748 149.212 121.031 149.033 120.882C149.033 120.524 148.854 120.524 148.495 120.524C148.137 120.524 147.779 120.703 147.6 120.882C147.421 121.061 147.062 121.778 146.883 122.823L144.017 132.077C143.659 132.973 143.659 133.69 143.659 134.018C143.659 134.346 143.838 134.376 144.196 134.376C144.555 134.376 144.913 134.197 145.092 134.018C145.271 133.66 145.45 133.122 145.808 132.227L148.674 122.793V122.823ZM154.377 124.435L152.765 129.42C152.227 131.212 151.69 132.615 151.152 133.51C150.615 134.406 150.078 135.123 149.182 135.988C148.286 136.884 147.391 137.242 146.316 137.6C145.241 137.959 144.166 138.138 142.942 138.138C141.509 138.138 140.435 137.959 139.569 137.6C138.673 137.242 138.136 136.884 137.778 136.167C137.419 135.63 137.24 134.735 137.24 134.018C137.24 133.302 137.598 131.898 138.136 130.107L139.748 124.942C140.285 123.002 141.002 121.569 141.718 120.494C142.435 119.419 143.51 118.553 144.734 118.016C145.988 117.478 147.421 117.12 149.182 117.12C150.615 117.12 151.69 117.299 152.556 117.837C153.451 118.195 153.989 118.732 154.347 119.419C154.705 120.136 154.884 120.852 154.884 121.569C155.063 121.748 154.705 122.822 154.347 124.405L154.377 124.435Z" fill="white"/>
<path d="M164.349 122.284C164.528 121.568 164.707 121.03 164.707 120.851C164.707 120.672 164.528 120.493 163.991 120.493C163.633 120.493 163.274 120.672 163.095 120.851C162.916 121.03 162.737 121.568 162.379 122.464L159.334 132.405C159.155 133.301 158.975 133.838 158.975 134.017C158.975 134.196 159.155 134.375 159.513 134.375C159.871 134.375 160.229 134.196 160.408 134.017C160.588 133.838 160.946 132.942 161.304 131.898L164.349 122.284ZM173.634 112.701L165.961 137.6H159.722L160.259 136.167C159.543 136.704 158.647 137.241 157.931 137.6C157.214 137.958 156.497 138.137 155.781 138.137C154.885 138.137 153.99 137.958 153.452 137.421C152.915 136.883 152.557 136.346 152.557 135.629C152.557 134.913 152.736 133.838 153.273 132.435L156.318 122.851C156.856 121.239 157.214 120.195 157.572 119.478C157.931 118.762 158.647 118.224 159.543 117.687C160.438 117.149 161.334 116.97 162.409 116.97C163.125 116.97 163.842 117.149 164.379 117.328C164.917 117.687 165.454 118.045 165.812 118.582L167.603 112.701H173.664H173.634Z" fill="white"/>
<path d="M188.055 117.15L181.815 137.6H175.396L176.113 135.809C175.396 136.526 174.68 137.063 173.963 137.392C173.247 137.75 172.351 137.929 171.635 137.929C170.739 137.929 170.022 137.75 169.485 137.392C168.948 137.033 168.589 136.675 168.589 136.138C168.41 135.6 168.41 135.063 168.589 134.346C168.769 133.809 168.948 132.555 169.485 130.794L173.754 116.941H179.994L175.725 130.794C175.187 132.406 175.008 133.272 175.008 133.63C175.008 133.988 175.187 134.167 175.725 134.167C176.262 134.167 176.441 133.988 176.62 133.63C176.799 133.272 177.158 132.376 177.695 130.614L181.964 116.941H188.025V117.12L188.055 117.15Z" fill="white"/>
<path d="M201.071 124.972H195.189L195.906 122.673C196.085 121.778 196.264 121.24 196.264 121.061C196.264 120.703 196.085 120.703 195.727 120.703C195.369 120.703 195.01 120.882 194.831 121.061C194.652 121.24 194.473 121.957 194.115 122.852L191.069 132.466C190.89 133.182 190.711 133.719 190.89 134.048C190.89 134.406 191.249 134.585 191.607 134.585C191.965 134.585 192.323 134.406 192.682 134.048C192.861 133.69 193.219 132.973 193.577 131.928L194.294 129.45H199.817C199.279 131.062 198.921 132.287 198.563 133.182C198.205 134.078 197.667 134.794 196.772 135.66C195.876 136.556 194.98 137.093 193.906 137.601C192.831 137.959 191.577 138.317 190.174 138.317C188.383 138.317 187.129 137.959 186.263 137.421C185.367 136.884 185.009 135.989 184.83 134.944C184.651 133.869 185.009 132.286 185.546 130.316L187.338 124.435C187.875 122.644 188.412 121.419 189.129 120.524C189.845 119.628 190.741 118.912 192.144 118.225C193.577 117.508 195.01 117.15 196.593 117.15C198.175 117.15 199.459 117.508 200.503 118.225C201.399 118.941 201.936 119.837 201.936 120.882C201.936 121.419 201.757 123.032 201.041 124.972H201.071Z" fill="white"/>
<path d="M212.833 114.463L211.758 117.658H213.37L212.295 120.852H210.683L207.31 131.869C206.951 133.302 206.772 134.018 206.772 134.168C206.951 134.347 207.489 134.347 208.384 134.347L207.31 137.72H204.981C203.548 137.72 202.473 137.72 201.936 137.541C201.398 137.362 200.861 137.183 200.503 136.646C200.144 136.287 199.965 135.75 200.144 135.212C200.144 134.675 200.503 133.421 201.219 131.301L204.444 121.002H203.19L204.264 117.807H205.697L206.772 114.613H212.833V114.434V114.463Z" fill="white"/>
<path d="M225.671 123.718H220.148L220.506 122.643C220.864 121.748 220.864 121.031 220.864 120.852C220.864 120.673 220.685 120.494 220.148 120.494C219.789 120.494 219.431 120.673 219.252 120.852C219.073 121.031 218.894 121.389 218.715 121.927C218.536 122.643 218.356 123.002 218.356 123.36C218.356 123.718 218.536 123.897 218.894 124.255C219.252 124.614 219.969 125.151 221.043 125.868C222.655 126.763 223.551 127.659 223.909 128.346C224.268 129.062 224.088 130.286 223.73 131.719C223.193 133.301 222.656 134.555 221.939 135.451C221.223 136.347 220.327 136.884 219.073 137.392C217.998 137.929 216.565 138.108 215.162 138.108C213.55 138.108 212.296 137.929 211.251 137.392C210.355 136.854 209.639 136.138 209.46 135.451C209.281 134.555 209.46 133.301 209.997 131.719L210.355 130.644H215.879L215.52 131.898C215.162 132.973 214.983 133.689 214.983 134.048C214.983 134.406 215.162 134.585 215.699 134.585C216.058 134.585 216.416 134.406 216.774 134.227C216.953 134.048 217.312 133.51 217.491 132.794C217.849 131.898 217.849 131.212 217.67 131.003C217.491 130.823 216.595 130.107 214.625 128.853C213.012 127.778 212.296 126.913 212.117 126.017C211.938 125.121 212.117 124.226 212.475 123.002C213.012 121.419 213.55 120.165 214.266 119.449C214.983 118.732 215.879 118.016 216.953 117.658C218.207 117.299 219.461 116.941 220.685 116.941C222.118 116.941 223.193 117.12 224.059 117.478C224.954 117.837 225.492 118.195 225.85 118.912C226.208 119.449 226.387 119.986 226.208 120.524C226.208 121.061 226.029 121.778 225.671 122.822V123.718Z" fill="white"/>
<path d="M85.9222 81.5944H78.2495L78.966 79.2955C79.3243 78.2207 79.5034 77.5041 79.3243 77.1459C79.1451 76.7876 78.966 76.6085 78.4287 76.6085C77.8913 76.6085 77.533 76.7876 77.1747 77.1459C76.8165 77.5041 76.4583 78.2207 76.2791 78.9373C75.9209 80.012 75.9209 80.7284 75.9209 81.2658C76.1 81.8032 76.6374 82.5198 77.7122 83.2064C80.7574 85.3261 82.5187 87.1173 83.0561 88.5503C83.5935 89.9834 83.4144 92.1031 82.3396 95.2975C81.6231 97.5963 80.9066 99.2084 80.011 100.283C79.1153 101.358 77.8614 102.224 76.1 102.94C74.3087 103.657 72.5473 104.015 70.3978 104.015C68.2482 104.015 66.4868 103.657 65.0538 102.761C63.7999 101.866 63.0834 100.821 62.9043 99.5667C62.9043 98.3128 63.0834 96.3723 63.7999 94.0437L64.5164 91.9239H72.1891L71.2934 96.1931C70.9352 97.447 70.756 98.1337 70.9351 98.492C71.1143 98.8502 71.2934 99.0293 72.0099 99.0293C72.7264 99.0293 73.0847 98.8502 73.443 98.3128C73.8012 97.9546 74.1595 97.238 74.5177 96.3722C75.0551 94.5809 75.2342 93.3569 74.876 92.6404C74.5177 92.103 73.443 91.0583 71.8607 89.8044C70.2485 88.3713 69.1738 87.5055 68.6364 86.789C68.099 86.2516 67.9199 85.3559 67.7407 84.311C67.5616 83.2363 67.9198 81.8331 68.2781 80.221C68.9946 77.743 69.8903 75.9517 70.7859 74.877C71.6815 73.8022 73.1146 72.9365 74.5177 72.22C75.9507 71.5035 77.8913 71.3243 79.8617 71.3243C82.0112 71.3243 83.7726 71.6826 85.0265 72.3991C86.2804 73.1156 86.9969 74.0112 87.176 75.0561C87.3552 76.1309 86.9969 77.8923 86.2804 80.4001L85.9222 81.6539V81.5944Z" fill="white"/>
<path d="M99.8329 71.9781L98.579 76.0682H90.369L91.6229 71.9781H99.8329ZM98.0417 77.6804L90.0108 103.624H81.8008L89.8317 77.6804H98.0417Z" fill="white"/>
<path d="M107.656 86.9377L108.194 84.9971C108.552 83.5641 108.731 82.8477 108.731 82.3402C108.731 81.8326 108.552 81.8026 108.015 81.8026C107.477 81.8026 107.119 81.9819 106.761 82.3402C106.581 82.6984 106.223 83.5939 105.686 84.9971L105.149 86.9377H107.656ZM114.254 91.177H103.924L102.133 96.8494C101.775 98.1033 101.596 98.7899 101.775 99.178C101.775 99.5363 102.133 99.7154 102.671 99.7154C103.208 99.7154 103.745 99.5363 104.104 98.9989C104.462 98.4615 104.82 97.7451 105.178 96.342L106.253 92.9684H113.747L113.209 94.9088C112.672 96.521 112.314 97.745 111.776 98.6407C111.239 99.5363 110.522 100.432 109.448 101.477C108.373 102.373 107.298 103.268 105.895 103.597C104.641 104.134 103.029 104.313 101.447 104.313C99.8642 104.313 98.4014 104.134 97.1773 103.597C96.1026 103.059 95.2069 102.522 94.8487 101.656C94.4904 100.76 94.1322 99.8647 94.3113 98.8198C94.4904 97.745 94.6695 96.3419 95.2069 94.3715L97.5356 86.7287C98.2521 84.4299 99.1477 82.6387 100.043 81.3848C101.118 80.1309 102.372 79.086 103.954 78.3695C105.566 77.6529 107.358 77.2947 109.119 77.2947C111.269 77.2947 113.03 77.6529 114.284 78.5486C115.538 79.4442 116.075 80.4891 116.254 81.9222C116.433 83.3552 116.075 85.2956 115.359 87.8034L114.284 91.177H114.254Z" fill="white"/>
<path d="M128.523 77.6812L127.09 81.0546C129.061 78.5766 131.001 77.3227 133.33 77.1436L130.464 86.2195C129.031 86.2195 127.956 86.3986 127.09 86.7569C126.374 87.1151 125.657 87.6525 125.299 88.369C124.941 89.0855 124.403 90.6679 123.508 93.1757L120.283 103.475H112.432L120.463 77.5317H128.493V77.7109L128.523 77.6812Z" fill="white"/>
<path d="M142.615 77.6812L141.182 81.0546C143.152 78.5766 145.093 77.3227 147.422 77.1436L144.556 86.2195C143.123 86.2195 142.048 86.3986 141.182 86.7569C140.466 87.1151 139.749 87.6525 139.391 88.369C139.032 89.0855 138.495 90.6679 137.6 93.1757L134.375 103.475H126.523L134.554 77.5317H142.585V77.7109L142.615 77.6812Z" fill="white"/>
<path d="M154.02 91.3561C152.408 92.2518 151.512 93.1475 151.154 93.655C150.795 94.1924 150.437 95.2672 150.079 96.3121C149.721 97.7451 149.542 98.4615 149.542 98.969C149.542 99.3273 149.9 99.5065 150.437 99.5065C150.975 99.5065 151.333 99.3273 151.512 98.969C151.691 98.6108 152.049 97.8944 152.408 96.4912L154.02 91.3262V91.3561ZM152.587 87.8034H145.093L145.631 86.0122C146.168 84.0717 146.885 82.4596 147.78 81.3848C148.497 80.31 149.751 79.2651 151.512 78.5486C153.124 77.6529 155.095 77.2947 157.393 77.2947C160.08 77.2947 162.021 77.8321 163.096 78.7277C164.17 79.6233 164.708 80.8474 164.529 82.2804C164.17 83.5343 163.454 86.3704 162.2 90.6396L158.11 103.626H150.437L151.154 101.298C150.437 102.193 149.542 102.91 148.646 103.447C147.75 103.985 146.676 104.164 145.631 104.164C144.198 104.164 143.123 103.805 142.227 102.91C141.332 102.014 141.332 100.432 142.048 97.745L142.765 95.5956C143.302 93.6551 144.018 92.4012 144.914 91.6847C145.81 90.9682 147.601 90.0725 150.258 89.2067C153.124 88.1319 154.706 87.4153 155.065 87.0571C155.423 86.6988 155.602 85.9824 155.96 84.9375C156.319 83.5045 156.498 82.6387 156.498 82.2804C156.498 81.9221 156.139 81.743 155.602 81.743C155.065 81.743 154.706 81.9221 154.348 82.2804C154.169 82.6387 153.811 83.5343 153.273 84.9375L152.557 87.7735L152.587 87.8034Z" fill="white"/>
<path d="M160.439 33.5865L153.483 40.3335L120.493 6.10352e-05L75.592 42.6622L65.7699 32.1833L20.4805 71.2928L24.063 75.353L65.4116 39.4678L79.6821 55.1116L83.7722 51.5589L79.1447 46.5732L119.956 7.82195L149.721 44.0654L142.078 51.3798L145.81 55.2907L160.439 41.0501L201.966 80.6969L205.698 76.9651L160.439 33.5865Z" fill="white"/>
<path d="M229.045 116.969V117.328H228.328V119.209H227.881V117.328H227.164V116.969H229.045ZM231.463 119.209L231.374 117.895C231.374 117.716 231.374 117.507 231.374 117.268C231.314 117.477 231.254 117.716 231.194 117.925L230.776 119.179H230.329L229.911 117.895C229.881 117.716 229.791 117.447 229.761 117.268C229.761 117.477 229.761 117.686 229.761 117.895L229.672 119.209H229.254L229.433 116.969H230.09L230.478 118.074C230.538 118.253 230.567 118.402 230.627 118.641C230.687 118.432 230.747 118.253 230.776 118.104L231.165 116.999H231.821L232 119.238H231.553L231.463 119.209Z" fill="white"/>
</svg>
