<svg width="20" height="19" viewBox="0 0 20 19" fill="none" xmlns="http://www.w3.org/2000/svg">
<path d="M19.6489 17.8171C18.2211 15.3487 16.0208 13.5787 13.4529 12.7396C14.7231 11.9835 15.7099 10.8313 16.2619 9.46006C16.8139 8.08879 16.9004 6.57425 16.5083 5.14902C16.1162 3.72379 15.2671 2.46668 14.0914 1.57074C12.9156 0.674803 11.4783 0.189575 10.0001 0.189575C8.52195 0.189575 7.08463 0.674803 5.90891 1.57074C4.73318 2.46668 3.88406 3.72379 3.49195 5.14902C3.09984 6.57425 3.18641 8.08879 3.73837 9.46006C4.29033 10.8313 5.27716 11.9835 6.54732 12.7396C3.97951 13.5778 1.77919 15.3478 0.351382 17.8171C0.299021 17.9025 0.264291 17.9975 0.24924 18.0965C0.234189 18.1955 0.239122 18.2966 0.263748 18.3936C0.288374 18.4907 0.332195 18.5819 0.392624 18.6618C0.453053 18.7416 0.528867 18.8086 0.615593 18.8587C0.702318 18.9088 0.798198 18.941 0.897577 18.9534C0.996955 18.9659 1.09782 18.9583 1.19421 18.9311C1.29061 18.9039 1.38059 18.8577 1.45884 18.7952C1.53709 18.7327 1.60203 18.6551 1.64982 18.5671C3.41607 15.5146 6.53794 13.6921 10.0001 13.6921C13.4623 13.6921 16.5842 15.5146 18.3504 18.5671C18.3982 18.6551 18.4632 18.7327 18.5414 18.7952C18.6197 18.8577 18.7097 18.9039 18.806 18.9311C18.9024 18.9583 19.0033 18.9659 19.1027 18.9534C19.2021 18.941 19.2979 18.9088 19.3847 18.8587C19.4714 18.8086 19.5472 18.7416 19.6076 18.6618C19.6681 18.5819 19.7119 18.4907 19.7365 18.3936C19.7611 18.2966 19.7661 18.1955 19.751 18.0965C19.736 17.9975 19.7012 17.9025 19.6489 17.8171ZM4.75013 6.94213C4.75013 5.90377 5.05804 4.88874 5.63492 4.02538C6.21179 3.16202 7.03173 2.48912 7.99104 2.09176C8.95036 1.6944 10.006 1.59043 11.0244 1.793C12.0428 1.99558 12.9782 2.49559 13.7124 3.22981C14.4467 3.96404 14.9467 4.8995 15.1493 5.9179C15.3518 6.9363 15.2479 7.9919 14.8505 8.95121C14.4531 9.91053 13.7802 10.7305 12.9169 11.3073C12.0535 11.8842 11.0385 12.1921 10.0001 12.1921C8.6082 12.1906 7.27371 11.637 6.28947 10.6528C5.30522 9.66855 4.75162 8.33405 4.75013 6.94213Z" fill="black"/>
</svg>
